<svg xmlns="http://www.w3.org/2000/svg" data-name="Layer 1" viewBox="0 0 64 64" id="earning"><path d="M12 19a8 8 0 0 0 7-11.82 8.22 8.22 0 0 0-2.47-2.74 5.79 5.79 0 0 0-.53-.38 7.31 7.31 0 0 0-.84-.42A8 8 0 1 0 12 19zm0-7a3 3 0 0 1-1-5.82V5h2v1.18A3 3 0 0 1 15 9h-2a1 1 0 1 0-1 1 3 3 0 0 1 1 5.82V17h-2v-1.18A3 3 0 0 1 9 13h2a1 1 0 1 0 1-1zm0 27a8 8 0 0 0 7-11.82 8.22 8.22 0 0 0-2.47-2.74 5.79 5.79 0 0 0-.58-.38 7.31 7.31 0 0 0-.84-.42A8 8 0 1 0 12 39zm0-7a3 3 0 0 1-1-5.82V25h2v1.18A3 3 0 0 1 15 29h-2a1 1 0 1 0-1 1 3 3 0 0 1 1 5.82V37h-2v-1.18A3 3 0 0 1 9 33h2a1 1 0 1 0 1-1zm29 21a7.93 7.93 0 0 0-1-3.82 8.22 8.22 0 0 0-2.47-2.74 5.79 5.79 0 0 0-.58-.38 7.31 7.31 0 0 0-.84-.42A8 8 0 1 0 41 53zm-11 2h2a1 1 0 1 0 1-1 3 3 0 0 1-1-5.82V47h2v1.18A3 3 0 0 1 36 51h-2a1 1 0 1 0-1 1 3 3 0 0 1 1 5.82V59h-2v-1.18A3 3 0 0 1 30 55zm27.57-8.56a5.79 5.79 0 0 0-.58-.38 7.31 7.31 0 0 0-.84-.42A8 8 0 1 0 61 53a7.93 7.93 0 0 0-1-3.82 8.22 8.22 0 0 0-2.43-2.74zM53 52a3 3 0 0 1 1 5.82V59h-2v-1.18A3 3 0 0 1 50 55h2a1 1 0 1 0 1-1 3 3 0 0 1-1-5.82V47h2v1.18A3 3 0 0 1 56 51h-2a1 1 0 1 0-1 1zm-41 9a9 9 0 1 0-9-9 9 9 0 0 0 9 9zm0-8a3.29 3.29 0 0 1-3-3.5 3.49 3.49 0 0 1 2-3.28V45h2v1.15A2.81 2.81 0 0 1 15 49h-2c0-.47-.11-1-1-1-.53 0-1 .7-1 1.5s.47 1.5 1 1.5a3.29 3.29 0 0 1 3 3.5 3.49 3.49 0 0 1-2 3.28V59h-2v-1.15A2.81 2.81 0 0 1 9 55h2c0 .47.11 1 1 1 .53 0 1-.7 1-1.5s-.47-1.5-1-1.5zM43.53 18.98l-7.2-5.2L32.27 19h.5l10.76-.02zM40.04 13.91l7.01 5.06h2.68L44.19 11l-4.15 2.91zM52 32.45v-9.9A1.56 1.56 0 0 0 50.45 21h-17.9A1.56 1.56 0 0 0 31 22.55V24h4.46A2.54 2.54 0 0 1 38 26.54v1.92A2.54 2.54 0 0 1 35.46 31H31v1.45A1.56 1.56 0 0 0 32.55 34h17.9A1.56 1.56 0 0 0 52 32.45ZM44 31h-2v-2h2Zm0-5h-2v-2h2Z"></path><path d="M36 28.46v-1.92a.54.54 0 0 0-.53-.54H31v3h4.46a.54.54 0 0 0 .54-.54zM47.2 43l-.62-1.9c-.6.19-1.21.36-1.82.49l.42 2A17.69 17.69 0 0 0 47.2 43zm1.88-37.3a19.7 19.7 0 0 0-2-.75l-.61 1.91a17.15 17.15 0 0 1 1.76.67zM23.69 34a20.28 20.28 0 0 0 1.15 1.75l1.61-1.18a18.45 18.45 0 0 1-1-1.57zm35.2-12 2-.21a18.19 18.19 0 0 0-.33-2.07l-1.95.43a16.55 16.55 0 0 1 .28 1.85zM35.46 41.13a17.72 17.72 0 0 1-1.76-.67l-.81 1.83a19.07 19.07 0 0 0 2 .74zm-14.35-15c.08.69.19 1.39.33 2.06l2-.41c-.13-.61-.23-1.24-.3-1.86zM42.9 41.9a16.79 16.79 0 0 1-1.9.1v2a20.74 20.74 0 0 0 2.09-.11zm5.43-1.46.82 1.83a19.15 19.15 0 0 0 1.86-1l-1-1.73a17.63 17.63 0 0 1-1.68.9zM22 30.22a17.79 17.79 0 0 0 .75 2l1.82-.82a17.72 17.72 0 0 1-.67-1.76zM39.14 41.9a16.36 16.36 0 0 1-1.86-.29l-.41 2a20.07 20.07 0 0 0 2.06.32zM29 37.39a16.69 16.69 0 0 1-1.33-1.33l-1.48 1.35a20.53 20.53 0 0 0 1.48 1.47zM52.7 7.78a20.34 20.34 0 0 0-1.76-1.14L50 8.38a17.69 17.69 0 0 1 1.58 1zM23.09 22.16l-2-.21C21 22.63 21 23.31 21 24h2c0-.62 0-1.24.09-1.84zM59 24a16.79 16.79 0 0 1-.1 1.88l2 .21A20.83 20.83 0 0 0 61 24h-.6zm-35.14-5.53L22 17.86c-.21.67-.39 1.35-.54 2l2 .4c.05-.58.21-1.19.4-1.79zm30.53 20.39-1.34-1.49c-.47.42-1 .82-1.46 1.19l1.18 1.61a20.16 20.16 0 0 0 1.62-1.31zm6.18-10.7-2-.42c-.13.61-.29 1.22-.48 1.82l1.9.62c.25-.67.43-1.35.58-2.02zm-4.01-13.22 1.73-1c-.35-.6-.74-1.18-1.15-1.75l-1.62 1.19a16.41 16.41 0 0 1 1.04 1.56zM25.39 15l-1.74-1a20.41 20.41 0 0 0-.94 1.87l1.82.81a16.59 16.59 0 0 1 .86-1.68zm30.43-4.44a20.67 20.67 0 0 0-1.49-1.47L53 10.58a18.54 18.54 0 0 1 1.33 1.33zM45.09 4.42A20.5 20.5 0 0 0 43 4.1l-.2 2a17.09 17.09 0 0 1 1.86.29zM58.1 18.37l1.9-.63a18.69 18.69 0 0 0-.76-1.95l-1.82.82a17.24 17.24 0 0 1 .68 1.76zM40.94 6V4a20.74 20.74 0 0 0-2.09.11l.21 2C39.68 6 40.32 6 40.94 6zm18.34 26.13-1.83-.81a16.64 16.64 0 0 1-.86 1.68l1.74 1c.34-.61.67-1.23.95-1.87zM27.59 12l-1.49-1.35c-.46.52-.9 1.07-1.31 1.63l1.62 1.18A18.51 18.51 0 0 1 27.59 12zm29.6 23.75-1.62-1.18A18.63 18.63 0 0 1 54.38 36l1.49 1.34c.46-.48.91-1.03 1.32-1.59zM37.21 6.4l-.43-2c-.68.15-1.36.34-2 .55l.63 1.9a18 18 0 0 1 1.8-.45zM31 41.34l1-1.74a17.69 17.69 0 0 1-1.58-1l-1.15 1.6A20.18 20.18 0 0 0 31 41.34zm-.62-31.88L29.2 7.85a20.29 20.29 0 0 0-1.62 1.32l1.34 1.48c.47-.42.96-.82 1.46-1.19zm3.25-1.89-.82-1.82A19.15 19.15 0 0 0 31 6.7l1 1.73c.5-.31 1.06-.6 1.63-.86z"></path></svg>