<svg xmlns="http://www.w3.org/2000/svg" viewBox="0 0 64 64" id="help"><g data-name="9"><path fill="white" d="M46,5H18A13,13,0,0,0,5,18V46A13,13,0,0,0,18,59H46A13,13,0,0,0,59,46V18A13,13,0,0,0,46,5ZM57,46A11,11,0,0,1,46,57H18A11,11,0,0,1,7,46V18A11,11,0,0,1,18,7H46A11,11,0,0,1,57,18Z"></path><path fill="white" d="M32 14a9 9 0 0 0-9 9 1 1 0 0 0 2 0 7 7 0 1 1 11.2 5.6l-1.6 1.2A9 9 0 0 0 31 37v4a1 1 0 0 0 2 0V37a7 7 0 0 1 2.8-5.6l1.6-1.2A9 9 0 0 0 32 14zM32 48a1 1 0 0 0 0 2h0a1 1 0 0 0 0-2z"></path></g></svg>