<svg xmlns="http://www.w3.org/2000/svg" version="1.2" viewBox="0 0 100 100" id="wallet"><path fill="white" d="M87.5 32.5V15A7.5 7.5 0 0 0 80 7.5H15A7.5 7.5 0 0 0 7.5 15v70a7.5 7.5 0 0 0 7.5 7.5h65a7.5 7.5 0 0 0 7.5-7.5V67.5A7.5 7.5 0 0 0 95 60V40a7.5 7.5 0 0 0-7.5-7.5zM80 85H15V15h65v17.5H57.5A7.5 7.5 0 0 0 50 40v20a7.5 7.5 0 0 0 7.5 7.5H80V85zm7.5-25h-30V40h30v20z"></path><circle fill="white" cx="67.5" cy="50" r="5"></circle><path fill="white" d="M65 20h10v5H65zM50 20h10v5H50zM35 20h10v5H35zM20 20h10v5H20zM65 75h10v5H65zM50 75h10v5H50zM35 75h10v5H35zM20 75h10v5H20z"></path></svg>