<svg xmlns="http://www.w3.org/2000/svg" viewBox="0 0 64 64" id="nut"><g data-name="Layer 2"><path fill="white" d="M56.92,31.6,46.81,8.6a1,1,0,0,0-.92-.6H18.11a1,1,0,0,0-.92.6L7.08,31.6a1,1,0,0,0,0,.8l10.11,23a1,1,0,0,0,.92.6H45.89a1,1,0,0,0,.92-.6l10.11-23A1,1,0,0,0,56.92,31.6ZM45.24,54H18.76L9.09,32l9.67-22H45.24l9.67,22Z"></path><path fill="white" d="M32 17A15 15 0 1 0 47 32 15 15 0 0 0 32 17zm0 28A13 13 0 1 1 45 32 13 13 0 0 1 32 45zM45.37 45.07a1 1 0 0 0-1.3.56L42.32 50H38a1 1 0 0 0 0 2h5a1 1 0 0 0 .93-.63l2-5A1 1 0 0 0 45.37 45.07zM18.63 18.93a1 1 0 0 0 1.3-.56L21.68 14H26a1 1 0 0 0 0-2H21a1 1 0 0 0-.93.63l-2 5A1 1 0 0 0 18.63 18.93z"></path></g></svg>