<svg xmlns="http://www.w3.org/2000/svg" width="1024" height="1024" viewBox="-52.139 -45.558 1024 1024" id="advertise"><path fill="white" d="M692.002 442.834c-.059 55.933-4.494 112.413-17.837 166.856-4.807 19.613-11.024 39.479-19.357 56.426-3.414 6.943-7.351 13.654-12.01 19.84 1.521-2.02-1.415 1.651-1.915 2.225a63.954 63.954 0 0 1-3.111 3.287 53.021 53.021 0 0 1-3.163 2.869c-1.852 1.565 1.893-1.391-.013.034-.7.523-1.428 1.007-2.159 1.483-1.054.686-2.157 1.289-3.277 1.856-.618.313-2.67 1.153.299-.069-.548.226-1.109.417-1.67.608-1.099.375-2.23.643-3.368.87-2.137.426 2.685-.284.524-.057-.759.08-1.521.099-2.283.107l5.3 1.434c-1.53-.702-2.918-1.277-4.558-1.595l-2.791-.375c2.729.569 3.565.659 2.509.271l-3.341-1.289-10.311-3.979c-2.799-1.079 3.063 2.051.159-.475-1.189-1.034-2.309-2.149-3.405-3.28-1.168-1.204-2.265-2.478-3.34-3.765-.204-.243-1.989-2.534-.548-.647a90.892 90.892 0 0 1-2.158-2.979c-11.278-16.057-17.545-33.454-23.257-52.007-17.01-55.248-22.388-114.182-23.463-171.73-1.112-59.558 2.962-119.964 16.55-178.082 4.998-21.377 11.46-43.007 20.899-61.965a142.856 142.856 0 0 1 6.131-11.027 109.351 109.351 0 0 1 3.181-4.852 94.435 94.435 0 0 1 1.619-2.255c.727-.963.725-.968-.006-.014.361-.458.729-.911 1.1-1.361 5.063-6.189 11.774-12.826 20.302-12.726.571.006 1.142.053 1.711.1 2.165.178-2.67-.434-.524-.056 1.144.201 2.263.519 3.368.87.565.179 1.117.394 1.67.608-2.962-1.149-.941-.38-.299-.069 1.325.641 2.587 1.408 3.819 2.21.551.359 1.084.745 1.617 1.131 1.928 1.395-1.861-1.504.013.035 1.101.904 2.142 1.879 3.163 2.87 1.084 1.051 2.106 2.163 3.111 3.288.524.588 1.029 1.193 1.534 1.797 1.851 2.216-.188-.327.883 1.095 10.598 14.07 16.594 29.166 22.016 45.039 16.669 48.802 22.903 101.249 25.56 152.515.774 14.965 1.11 29.948 1.126 44.93.015 13.542 21.015 13.543 21 0-.06-56.823-4.709-114.316-17.916-169.696-4.938-20.704-11.376-41.104-20.334-60.439-6.199-13.379-14.284-27.207-25.827-36.683-14.345-11.777-32.312-14.139-48.341-3.231-14.352 9.766-23.666 26.054-30.75 41.475-22.058 48.01-29.89 102.624-34.433 154.786-5.468 62.783-3.905 126.375 4.698 188.799 3.64 26.407 8.824 52.697 16.571 78.223 5.827 19.198 13.183 38.645 24.307 55.457 4.215 6.37 9.092 12.532 14.95 17.472 5.935 5.003 13.686 7.101 20.856 9.868l.956.368c.023.01.047.019.07.027 3.876.649 3.727.476-.449-.522 2.539 1.165 4.866 1.55 7.583 1.326 3.259-.268 6.468-.837 9.541-1.957 6.479-2.361 12.024-6.132 17.087-10.786 11.476-10.55 19.232-25.204 25.398-39.301 8.784-20.085 14.921-41.164 19.744-62.52 12.007-53.172 16.23-108.252 16.287-162.666.017-13.543-20.983-13.542-20.998 0z"></path><path fill="white" d="m606.144 691.911-93.221-33.754-181.146-65.589-121.297-43.92c-15.929-5.768-31.859-11.534-47.788-17.301l7.708 10.125V343.971l-7.708 10.125 86.283-31.241 178.632-64.678 150.656-54.548 27.365-9.908-10.216-17.55c-12.6 10.928-20.901 26.537-27.427 41.623-9.521 22.009-15.934 45.167-20.883 68.592-12.759 60.385-16.204 122.924-14.361 184.501 1.51 50.413 6.917 101.384 19.592 150.291 4.842 18.683 11.038 37.106 19.426 54.513 5.941 12.329 13.6 24.858 24.169 33.77 4.372 3.686 10.547 4.302 14.85 0 3.788-3.788 4.38-11.157 0-14.85-2.444-2.061-4.682-4.316-6.788-6.72-.567-.647-1.111-1.315-1.656-1.981-1.856-2.273 1.258 1.704-.54-.7-1.317-1.762-2.545-3.59-3.742-5.436-4.58-7.058-9.044-16.049-11.898-22.865-9.224-22.033-15.159-45.432-19.856-68.798-12.123-60.301-14.724-122.696-12.173-184.033 1.905-45.802 7.219-91.809 18.926-136.205 4.372-16.582 9.825-33.219 16.925-47.919 5.878-12.172 11.052-20.923 20.288-28.933 7.809-6.772-.417-21.098-10.216-17.55l-86.283 31.241-178.632 64.678-150.657 54.548-27.366 9.908c-4.444 1.609-7.708 5.173-7.708 10.125v197.501c0 4.952 3.264 8.516 7.708 10.125l86.73 31.4 167.182 60.534 159.054 57.59 30.487 11.039c5.386 1.95 11.488-2.145 12.916-7.334 1.607-5.847-1.958-10.968-7.335-12.915z"></path><path fill="white" d="M149.4 344.591v196.451l10.5-10.5H76.908c-9.077 0-16.686-6.077-19.252-14.667-1.926-6.447-.713-15.321-.713-22.183V375.814c0-12.622 9.535-20.724 21.78-20.724h81.178c13.542 0 13.542-21 0-21H76.909c-13.204 0-25.396 6.512-33.185 17.042-7.486 10.119-7.78 21.543-7.78 33.405V506.552c0 16.583 6.353 31.626 21.431 40.032 8.081 4.505 16.832 4.957 25.774 4.957h76.752c5.724 0 10.5-4.776 10.5-10.5V344.59c-.001-13.541-21.001-13.541-21.001.001zm440.258 98.249c-.131 15.904-4.249 31.245-13.564 44.261-3.594 5.021-8.336 8.9-13.538 11.817-5.591 3.135-10.297 3.292-16.951 3.292l10.5 10.5c-3.842-46.451-3.788-93.369-.105-139.827l-10.5 10.5c6.318.037 10.83.24 16.019 2.796 6.015 2.964 10.223 6.998 14.642 12.438 9.636 11.867 13.372 29.038 13.497 44.223.111 13.536 21.111 13.547 21 0-.171-20.822-5.966-41.491-18.854-58.048-5.325-6.842-11.996-12.692-19.688-16.745-8.544-4.501-17.129-5.608-26.618-5.664-6.064-.035-10.05 4.823-10.5 10.5-3.683 46.458-3.736 93.376.105 139.827.472 5.702 4.419 10.5 10.5 10.5 9.228 0 17.009-1.222 25.464-5.098 7.764-3.559 14.595-9.646 19.939-16.221 13.49-16.592 19.477-37.884 19.65-59.052.114-13.546-20.886-13.535-20.998.001zm196.887 8.903h91.396c13.542 0 13.542-21 0-21h-91.396c-13.542 0-13.542 21 0 21zm-12.884-165.75 73.136-54.814c4.57-3.425 6.909-9.002 3.767-14.366-2.645-4.515-9.774-7.208-14.366-3.767l-73.136 54.814c-4.57 3.425-6.909 9.002-3.767 14.366 2.644 4.515 9.774 7.208 14.366 3.767zm-10.599 328.633 73.136 54.813c4.592 3.441 11.722.748 14.366-3.767 3.143-5.364.804-10.941-3.767-14.366l-73.136-54.813c-4.592-3.441-11.722-.748-14.366 3.767-3.143 5.364-.804 10.941 3.767 14.366z"></path><path fill="white" d="m193.478 554.503-26.186 147.266-5.237 29.449-.855 4.811c-.567 3.188-1.792 4.467-4.378 5.227-.437.129-3.985-.312-1.189.187l-1.891-.337-41.53-7.391-12.204-2.172c-2.868-.51-5.042-2.218-5.275-4.142-.145-1.197.354-4.206-.157-1.328l.128-.722 27.538-154.848 4.743-26.67-10.125 7.709h43.041l-10.5-10.5v.431c0 4.952 3.264 8.516 7.708 10.125l43.703 15.821c5.386 1.95 11.489-2.144 12.917-7.334 1.608-5.848-1.957-10.97-7.333-12.916l-43.703-15.821 7.708 10.125v-.431c0-5.724-4.776-10.5-10.5-10.5H116.86c-4.34 0-9.317 3.169-10.125 7.709L80.531 685.592l-5.306 29.834-.91 5.113c-2.296 12.911 4.026 25.058 16.256 30.055 4.038 1.649 8.657 2.054 12.924 2.813l22.714 4.042c13.444 2.393 29.357 7.841 42.282 1.621 10.528-5.065 12.646-15.714 14.446-25.833l5.909-33.231 16.716-94.011 8.164-45.909c1.001-5.63-1.438-11.294-7.333-12.916-5.125-1.411-11.913 1.692-12.915 7.333z"></path></svg>